#!OML:ASF X:\für Bonn\!DataBase\2005_08_10_Bjorn_Final\c3d\bjorn.ASF
:FULLY-SPECIFIED
:DEGREES
136
root 0.877106 17.9938 2.91145 -208.489 0.512563 181.545
lowerback 7.32832 0.479784 0.837112
upperback 14.3945 4.49999 -6.07004
thorax 12.1713 4.19562 -6.70787
lowerneck -2.09575 11.1945 -9.23102
upperneck 7.47726 15.0856 -5.41133
head 2.48616 6.75588 0.130873
rclavicle 5.08889e-014 1.20861e-013
rhumerus -9.88683 7.4558 -42.4242
rradius 55.2046
rwrist 0.628419
rhand -15.2253 21.9966
rfingers 7.12502
rthumb 10.9474 -7.698
lclavicle 5.08889e-014 1.20861e-013
lhumerus -328.942 -23.429 -315.115
lradius 77.7819
lwrist -15.7552
lhand -51.662 -13.6564
lfingers 7.12502
lthumb -24.1835 14.839
rfemur 5.94043 -8.94009 18.672
rtibia 44.9126
rfoot -16.3576 16.4596
rtoes -4.41047
lfemur -34.3462 13.0393 -10.7825
ltibia 76.9167
lfoot 0.218945 6.12759
ltoes -24.5692
137
root 0.851337 18.0597 3.05573 -207.716 0.483227 181.538
lowerback 7.74101 0.386024 0.763454
upperback 14.41 4.37181 -6.01146
thorax 11.9097 4.12093 -6.62694
lowerneck -2.13755 11.145 -9.33649
upperneck 7.6348 15.0381 -5.28705
head 2.52914 6.726 0.191177
rclavicle -2.34566e-014 3.18055e-015
rhumerus -11.1923 8.38266 -42.992
rradius 56.8751
rwrist 0.106199
rhand -15.4393 21.7657
rfingers 7.12502
rthumb 10.741 -7.93966
lclavicle -2.34566e-014 3.18055e-015
lhumerus -329.345 -24.134 -315.919
lradius 78.4416
lwrist -15.0131
lhand -51.7494 -13.5096
lfingers 7.12502
lthumb -24.2672 14.9746
rfemur 4.99889 -8.84699 18.8346
rtibia 44.1823
rfoot -16.038 16.0316
rtoes -4.97846
lfemur -34.0645 12.9185 -10.6387
ltibia 79.146
lfoot 0.017923 6.1838
ltoes -24.2486
138
root 0.823811 18.1221 3.20042 -206.889 0.428297 181.497
lowerback 8.10164 0.294761 0.660965
upperback 14.4081 4.23843 -5.95555
thorax 11.6573 4.0364 -6.52975
lowerneck -1.97254 11.0861 -9.59751
upperneck 7.47081 14.9342 -5.08793
head 2.40996 6.69644 0.269841
rclavicle 1.43125e-014 9.54166e-014
rhumerus -12.5481 9.22826 -43.6606
rradius 58.5856
rwrist -0.454651
rhand -15.5094 21.5691
rfingers 7.12502
rthumb 10.6734 -8.13977
lclavicle 1.43125e-014 9.54166e-014
lhumerus -329.967 -24.828 -316.556
lradius 79.1473
lwrist -14.2986
lhand -51.679 -13.4893
lfingers 7.12502
lthumb -24.1997 15.0039
rfemur 3.99428 -8.77367 18.9331
rtibia 43.4559
rfoot -15.6796 15.6678
rtoes -5.70886
lfemur -33.7766 12.742 -10.5294
ltibia 81.2758
lfoot 0.155579 6.00925
ltoes -24.1026
139
root 0.795417 18.1807 3.3443 -206.019 0.347502 181.408
lowerback 8.40789 0.216848 0.527724
upperback 14.3908 4.11945 -5.91195
thorax 11.422 3.95431 -6.42511
lowerneck -1.62495 11.011 -9.86064
upperneck 7.03956 14.7717 -4.91397
head 2.17389 6.66111 0.318888
rclavicle -3.02153e-014 -9.54166e-015
rhumerus -14.0062 9.95824 -44.436
rradius 60.346
rwrist -0.994295
rhand -15.5277 21.3514
rfingers 7.12502
rthumb 10.6557 -8.35843
lclavicle -3.02153e-014 -9.54166e-015
lhumerus -330.733 -25.5084 -317.068
lradius 79.9138
lwrist -13.6109
lhand -51.489 -13.423
lfingers 7.12502
lthumb -24.0176 15.0943
rfemur 2.89799 -8.69086 18.9741
rtibia 42.8173
rfoot -15.3786 15.3258
rtoes -6.53315
lfemur -33.4585 12.5396 -10.4642
ltibia 83.2463
lfoot 0.626664 5.40055
ltoes -25.1519
140
root 0.765036 18.2333 3.48867 -205.08 0.250969 181.255
lowerback 8.69128 4.21505 0.948184
upperback 14.7798 3.00881 -5.03381
thorax 11.5197 0.650232 -6.26756
lowerneck -1.28123 10.9535 -10.1193
upperneck 6.63744 14.6323 -4.7602
head 1.95304 6.63235 0.362921
rclavicle -7.95139e-016 4.77083e-014
rhumerus -15.5144 10.6656 -45.2871
rradius 62.0972
rwrist -1.5017
rhand -15.5223 21.1211
rfingers 7.12502
rthumb 10.661 -8.58839
lclavicle -7.95139e-016 4.77083e-014
lhumerus -331.687 -26.1484 -317.446
lradius 80.6873
lwrist -12.805
lhand -51.2036 -13.693
lfingers 7.12502
lthumb -23.7439 14.8601
rfemur 1.66678 -8.61174 18.9359
rtibia 42.2785
rfoot -15.0949 15.0215
rtoes -7.50756
lfemur -33.1624 12.2712 -10.4822
ltibia 85.0271
lfoot 1.22676 4.40807
ltoes -26.2744
141
root 0.733152 18.2777 3.63313 -204.129 0.124326 181.115
lowerback 8.96517 4.10747 0.767431
upperback 14.694 2.86186 -4.98406
thorax 11.2136 0.556339 -6.10737
lowerneck -0.953803 10.8994 -10.4003
upperneck 6.25826 14.499 -4.58523
head 1.74211 6.60378 0.418642
rclavicle 1.55052e-014 7.15625e-014
rhumerus -17.1019 11.3428 -46.2022
rradius 63.8164
rwrist -1.9789
rhand -15.5733 20.9191
rfingers 7.12502
rthumb 10.6118 -8.79299
lclavicle 1.55052e-014 7.15625e-014
lhumerus -332.675 -26.8469 -317.8
lradius 81.2775
lwrist -11.9847
lhand -51.0587 -14.0046
lfingers 7.12502
lthumb -23.6049 14.5665
rfemur 0.391901 -8.56686 18.8837
rtibia 41.8045
rfoot -14.8421 14.7559
rtoes -8.40098
lfemur -32.8109 11.9131 -10.4864
ltibia 86.6098
lfoot 1.9272 2.87618
ltoes -26.1661
